<?xml version="1.0" encoding="utf-8"?>
<!-- Generator: Adobe Illustrator 16.0.4, SVG Export Plug-In . SVG Version: 6.00 Build 0)  -->
<!DOCTYPE svg PUBLIC "-//W3C//DTD SVG 1.1//EN" "http://www.w3.org/Graphics/SVG/1.1/DTD/svg11.dtd">
<svg version="1.1" id="Layer_1" xmlns="http://www.w3.org/2000/svg" xmlns:xlink="http://www.w3.org/1999/xlink" x="0px" y="0px"
	 width="841.889px" height="595.281px" viewBox="0 0 841.889 595.281" enable-background="new 0 0 841.889 595.281"
	 xml:space="preserve">
<g>
	<path fill="#FFFFFF" d="M808.636,798.671L808.636,798.671L808.636,798.671L808.636,798.671c0.018-0.026,0.033-0.052,0.051-0.076
		l0.016-0.159c-0.047,0.024-0.09,0.05-0.137,0.074C808.589,798.563,808.613,798.615,808.636,798.671L808.636,798.671z"/>
	<path fill="#FFFFFF" d="M807.128,810.979c-0.678,4.034-1.391,8.126-2.363,12.771c-8.193,0.639-14.279,1.05-21.143,1.465
		c-0.732,0.761-1.457,1.509-2.178,2.257c-0.713,0.757-1.451,1.49-2.24,2.207c-1.549,1.457-3.127,2.935-4.799,4.5
		c3.512,0.424,5.91,0.712,8.846,1.065c-1.881,4.016-4.352,8.101-5.77,12.074c-0.615,1.786-1.119,3.093-1.234,4.106
		c-0.119,1.012,0.127,1.714,0.885,2.202c0.76,0.489,2.029,0.765,3.961,0.921c1.947,0.172,4.492,0.176,7.826,0.122
		c3.682-2.685,7.428-5.4,11.676-7.717c1.062-0.58,2.162-1.133,3.293-1.659c1.098-0.55,2.236-1.068,3.42-1.551
		c2.369-0.962,4.936-1.773,7.76-2.391c2.574-0.56,6.133-3.59,8.363-5.66c4.408-4.419,8.67-8.846,12.82-13.244
		c3.982-4.5,7.725-9.054,11.43-13.541c0.971-1.131,1.719-2.355,2.361-3.563c0.645-1.209,1.16-2.411,1.545-3.569
		c1.486-4.574,1.758-8.728,1.348-12.765c-0.486-4.073-1.475-7.949-2.234-11.833c-0.805-4.094-4.697-5.945-9.492-5.823
		c-4.812,0.124-10.469,2.226-15.174,6.211c-4.389,3.437-7.559,7.668-10.756,11.685c-2.594,3.018-4.398,6.197-6.592,9.345
		l-0.582,6.142C807.814,806.809,807.472,808.884,807.128,810.979z"/>
	<path fill="#FFFFFF" d="M740.779,863.451c-2.75-1.043-6.086-1.84-9.717-2.359c-3.682-0.565-7.652-0.845-11.615-0.759
		c-4.434,0.096-8.262,1.246-11.527,2.947c-3.275,1.683-6.125,3.775-8.303,5.982c3.326,3.706,6.248,6.963,8.68,9.678
		c2.213-0.506,4.336-0.992,6.396-1.464c2.07-0.474,4.084-0.924,5.982-1.446c3.854-1.014,7.539-1.984,11.225-2.953l3.973-0.086
		c0.971-1.664,2.834-3.767,4.027-5.68C741.115,865.413,741.822,863.845,740.779,863.451z"/>
	<path fill="#FFFFFF" d="M269.434,893.801c-2.823-0.373-5.562-0.861-8.295-1.301c-2.739-0.449-5.436-0.89-8.055-1.318
		c-4.717,2.673-5.722,5.823-3.379,8.827c2.346,2.975,7.949,5.944,16.419,7.583c4.349,0.888,9.821,0.727,14.152-0.101
		c4.326-0.798,7.58-2.363,7.617-4.037C287.92,899.99,278.917,895.151,269.434,893.801z"/>
	<path fill="#FFFFFF" d="M900.874,724.633c-2.184,2.73-3.85,5.722-5.012,8.797c-0.295,0.767-0.535,1.547-0.791,2.314
		c-0.273,0.762-0.518,1.525-0.727,2.288c-0.422,1.526-0.717,3.051-0.879,4.549c-0.326,2.996-0.139,5.889,0.596,8.467
		c0.746,2.585,1.832,4.781,3.676,6.489c1.033-0.793,2.018-1.598,2.943-2.409c0.916-0.816,1.701-1.667,2.475-2.506
		c1.523-1.684,2.834-3.381,3.916-5.06c1.088-1.68,1.947-3.34,2.576-4.956c0.314-0.809,0.578-1.604,0.771-2.387
		c0.152-0.797,0.254-1.578,0.293-2.341C911.06,731.766,907.749,726.9,900.874,724.633z"/>
	<path fill="#FFFFFF" d="M762.615,837.493l-0.584-1.328c-6.211,1.158-12.508,2.178-20.4,3.489c1.982,1.676,2.99,2.528,4.078,3.449
		c-2.908,2.391-6.779,4.323-8.328,6.419c-1.883,2.508-0.119,5.438,4.873,3.604c2.248-0.823,4.441-1.47,6.605-2.001
		c2.119-0.571,4.191-1.038,6.271-1.438c4.154-0.805,8.283-1.379,12.527-2.211c0.996-0.194,2.125-1.508,3.426-2.481
		c-5.822-0.746-11.301-1.495-17.508-2.407C757.993,840.104,760.331,838.819,762.615,837.493z"/>
	<path fill="#FFFFFF" d="M880.534,776.129c-2.662,2.437-3.496,5.56-4.564,10.42c3.041-0.947,5.621-1.786,7.607-2.774
		c2.014-0.977,3.625-2.019,4.984-3.271c2.686-2.511,4.504-5.816,6.244-11.163C887.531,771.903,883.142,773.671,880.534,776.129z"/>
	<path fill="#FFFFFF" d="M659.831,307.206c3.205,0.805,6.16-0.021,11.172-1.875c-2.908-2.462-6.377-3.956-10.365-4.84
		c-2.004-0.434-4.109-0.752-6.393-0.897c-2.289-0.127-4.717-0.148-7.27-0.107C653.263,303.886,656.609,306.421,659.831,307.206z"/>
	<path fill="#FFFFFF" d="M819.302,404.595c1.402,0.56,3.189,0.994,5.189,1.411c2.01,0.412,4.354,0.745,7.047,1.014
		c-0.561-1.408-1.213-2.713-1.986-3.888c-0.787-1.171-1.785-2.162-2.889-3.031c-2.225-1.725-5.059-2.846-8.746-3.175
		c-1.686-0.148-3.734,1.856-3.438,3.206C814.902,402.029,816.464,403.493,819.302,404.595z"/>
	<path fill="#FFFFFF" d="M7.302,443.572c1.576-0.833,2.745-1.65,3.552-2.504c0.799-0.854,1.234-1.745,1.446-2.685
		c0.422-1.878-0.053-3.95-0.325-6.289c-3.574,1.432-6.779,2.773-8.971,4.415c-1.097,0.819-1.938,1.716-2.442,2.732
		c-0.479,1.025-0.564,2.191-0.257,3.513C0.61,444.031,5.328,444.585,7.302,443.572z"/>
	<path fill="#FFFFFF" d="M245.166,344.682c-1.297,0.521-2.609,1.149-4.095,1.802c5.827-0.304,8.848-0.239,10.754-1.046
		c1.929-0.778,2.824-2.288,4.718-5.338c-2.863,1.152-5.235,2.107-7.653,3.081C247.682,343.668,246.463,344.159,245.166,344.682z"/>
	<path fill="#FFFFFF" d="M234.938,886.015c1.27-3.456,1.964-5.349,2.66-7.242l-4.638-1.16
		C229.247,878.962,228.041,880.784,234.938,886.015z"/>
	<path fill="#FFFFFF" d="M-36.597,558.646c5.201-0.103,8.021-0.156,10.842-0.212C-28.156,554.26-30.874,553.37-36.597,558.646z"/>
	<path fill="#FFFFFF" d="M84.801,819.934c-1.796-0.953-4.067-1.301-7.576-2.322c1.332,2.408,1.654,4.457,3.092,5.169
		c1.511,0.766,4.289,0.659,5.772,0.257C86.681,822.876,85.771,820.438,84.801,819.934z"/>
	<path fill="#FFFFFF" d="M-26.022,531.001c-1.865,2.206-3.18,3.25-3.57,4.425c-0.213,0.714,1.077,2.403,1.404,2.291
		c1.255-0.423,2.958-1.233,3.388-2.193C-24.355,534.61-25.324,533.317-26.022,531.001z"/>
	<path fill="#FFFFFF" d="M673.962,868.895c-0.049,0.067,2.232,0.34,2.395,0.227c1.947-1.406,3.717-2.828,5.463-4.294
		c-1.5-0.152-3.047-0.371-4.559-0.556C676.14,865.804,674.968,867.344,673.962,868.895z"/>
	<path fill="#FFFFFF" d="M229.894,302.516c1.681-0.688,2.922-1.717,4.973-2.992c-2.417-0.232-4.476-0.611-4.827-0.41
		c-1.483,0.862-2.71,1.901-3.393,2.864C226.493,302.199,229.309,302.758,229.894,302.516z"/>
	<path fill="#FFFFFF" d="M919.298,568.393c-0.08-1.092-0.115-2.154-0.094-3.185c-0.027-1.025-0.039-2.016,0.027-2.972
		c0.246-3.821,1.4-7.081,3.695-9.583c-0.59-1.056-1.17-2.102-1.75-3.141c-0.309-0.565-0.623-1.127-0.951-1.684
		c0.172,0.084,0.342,0.164,0.516,0.249c-0.297-2.041-0.586-3.508-0.791-4.661c0.668-0.55,1.322-1.101,1.982-1.659
		c1.158-0.988,2.336-1.993,3.559-3.037c-0.092,0.599-0.158,1.205-0.176,1.817c-0.121,3.887,1.25,8.04,4.129,12.536
		c5.438-2.042,10.084-4.661,10.924-10.375c1.439-1.773,2.693-3.497,2.203-4.757c-1.57-3.976-2.09-7.566-1.652-11.034
		c0.264-3.447,1.441-6.768,3.502-10.209c-3.34,0.193-5.98,0.924-8.158,2.253c-2.082,1.267-3.684,3.156-5.77,4.969
		c-3.877-6.667-0.693-8.537,3.258-10.343c1.693-0.772,3.318-1.656,4.996-2.62c1.631-0.969,3.332-1.979,5.162-3.065
		c-9.379-5.21-9.338-5.086-12.516,1.23c-2.338,4.611-6.508,4.424-14.17-0.177c1.498-3.317,2.229-5.001,4.266-6.592
		c2.029-1.597,5.361-3.092,11.988-6.19c-2.475-0.291-3.756-0.522-5.025-0.556c-1.24-0.029-2.438,0.138-4.357,0.267
		c4.078-5.54,4.059-5.586,2-10.396c1.527-2.285,2.992-4.524,4.568-6.993c1.463-2.443,3.016-5.111,4.816-8.312
		c-7.197,0.054-11.959,0.129-16.662,0.217c1.424-2.322,2.908-4.696,5.145-8.638c-4.846,1.604-8.102,2.684-11.355,3.762
		c-1.701,0.554-3.426,1.025-4.949,0.72c-1.559-0.296-2.943-1.354-3.988-3.879c-1.389-3.345-3.969-3.402-6.418-3.144
		c-2.275,0.239-4.301,1.049-6.32,1.575c-0.621-0.655-1.199-1.268-1.77-1.87c0.254-2.336-0.145-4.688-1.186-6.998
		c-0.271-0.601-0.584-1.197-0.939-1.79c-0.375-0.588-0.822-1.157-1.299-1.729c-0.955-1.139-2.08-2.254-3.367-3.338
		c-2.576-2.166-5.803-4.2-9.633-6.021c-2.543,1.903-5.172,3.849-8.074,5.963c-2.166-2.646-4.248-5.286-6.203-7.937
		c-2.352-2.908-4.559-5.826-6.529-8.795c-0.99-1.484-1.924-2.98-2.795-4.491c-0.848-1.51-1.699-3.018-2.553-4.533
		c-1.865-3.456-4.555-8.152-12.254-9.835c1.1,3.482,3.621,7.154,6.547,10.864c3.033,3.666,5.975,7.577,8.523,11.238
		c-2.693-1.974-5.195-3.809-7.605-5.575c-1.18-0.887-2.43-1.717-3.658-2.539c-1.227-0.82-2.441-1.633-3.656-2.445l-3.98-0.184
		c1.252,1.904,2.504,3.809,3.74,5.685c1.201,1.882,2.23,3.788,3.299,5.603c-3.371-1.418-4.104-1.565-4.326-1.835
		c-1.117-1.395-2.484-2.779-3.893-4.173c-1.883-4.812-3.945-8.749-5.199-11.379c-2.455-0.894-4.842-1.763-7.188-2.617
		c-2.352-4.005-6.072-6.161-9.709-8.053c-3.676-1.987-7.596-3.538-9.918-6.783c-0.65-0.889-0.877-1.733-1.637-2.616
		c-1.893-2.163-3.732-4.386-5.766-6.514c-0.844-0.866-1.686-1.729-2.529-2.596c-2.25-4.318-4.824-8.324-8.352-11.986
		c-3.934-3.872-9.143-7.239-16.129-10.176c-1.092,0.486-1.844,1.086-2.234,1.754c-0.357-0.209-0.709-0.418-1.066-0.63
		c-1.412-0.834-2.85-1.685-4.32-2.554c0.438-0.981,1.023-2.299,1.609-3.618l4.525,4.349c1.377-2.787-0.379-4.313-4.719-4.409
		c-0.182-1.509,0.586-3.608-0.742-4.467c-1.227-0.79-2.25-1.542-3.096-2.261c-0.857-0.712-1.57-1.36-2.086-2.003
		c-1.051-1.276-1.42-2.458-1.225-3.58c0.055-0.324,0.162-0.643,0.309-0.959c0.959,0.082,1.934,0.141,2.936,0.178
		c-0.229-0.938-0.436-1.873-0.646-2.81c1.146-0.906,2.629-1.797,4.369-2.689c-1.814,0.022-3.461,0.047-5.004,0.073
		c-0.324-1.208-0.701-2.424-1.207-3.656c-0.697-1.713-2.188-3.625-4.066-5.35c-1.023-0.938-2.002-1.778-2.961-2.528
		c-0.963-0.749-1.959-1.357-2.934-1.91c-1.967-1.095-3.963-1.858-6.223-2.343c-4.531-0.946-10.062-0.859-18.539,0.151
		c2.863,3.566,5.512,6.715,8.295,9.283c2.744,2.604,5.627,4.634,8.541,6.353c2.217,1.322,4.543,2.381,7.014,3.202
		c1.953,4.546,3.713,8.85,5.178,13.084c0.27,0.765,0.551,1.673,0.605,2.487c-1.715-1.075-3.268-2.127-4.682-3.163
		c-2.375-1.642-4.42-3.225-6.199-4.828c-0.129-0.114-0.244-0.229-0.371-0.345c0.691-0.539,1.506-1.174,2.551-1.99
		c-0.523-0.097-1.045-0.199-1.559-0.304c0.352-0.698,0.502-1.484,0.113-1.954c-1.432-1.823-4.52-4.044-7.232-4.705
		c-0.705-0.171-1.414-0.318-2.137-0.453c-0.037-0.048-0.072-0.097-0.109-0.146c-1.459-0.383-3.016-0.829-4.605-1.297
		c-0.121-0.963-0.527-2.284-1.096-4.087c-3.861-0.102-5.338,0.748-6.039,1.944c-2.818-0.837-5.424-1.566-7.43-1.97
		c1.301-4.277,0.746-4.417-10.229-6.757c3.129,2.306,5.77,4.251,8.846,6.521c-1.008-0.133-1.766-0.129-2.186,0.063
		c-6.508,2.933-12.783-1.578-20.533-5.577c-1.889-1.012-3.904-1.909-5.875-2.858c-1.994-0.93-3.992-1.861-5.992-2.794
		c-2.008-0.923-4.033-1.834-6.082-2.728l-3.092-1.322c-1.045-0.428-2.121-0.816-3.188-1.215c-7.072-2.608-12.012-4.812-15.121-6.981
		c-1.537-1.101-2.672-2.127-3.369-3.203c-0.695-1.077-0.961-2.196-0.834-3.396c0.146-1.369,2.32-2.201,3.555-3.259
		c-5.123-1.557-9.908-3.009-14.803-4.495c-2.43-0.762-4.961-1.434-7.568-2.132c-0.895-0.24-1.807-0.484-2.725-0.73
		c-0.75-1.512-1.492-2.979-2.252-4.447l-7.209-0.882l5.717-2.371c0.082-0.01,0.162-0.016,0.246-0.023l-0.029-0.066l-0.305,0.098
		l-3.828-3.709c-1.756,0.146-3.494,0.248-6.148,0.541c-0.572-1.435-1.061-2.663-1.834-4.614c-4.77,0.127-9.191,0.657-13.697,0.307
		c-1.219-0.096-2.441-0.241-3.689-0.424c-1.254-0.172-2.549-0.344-3.877-0.555c-2.666-0.413-5.51-0.905-8.668-1.351
		c-2.922,1.046-6.779,2.446-11.443,4.202c3.975,1.053,5.779,1.532,7.48,1.982c-0.303,1.086-2.09,1.941-3.689,2.828
		c-1.703-0.48-3.803-0.945-6.486-1.455c-1.873-0.335-3.984-0.771-6.506-1.107c-1.105-0.152-2.281-0.313-3.521-0.483
		c-1.014-0.435-2.039-0.87-3.102-1.302c-2.404,0.414-4.758,0.818-7.012,1.207c-1.121,0.197-2.215,0.389-3.281,0.575
		c-1.064,0.215-2.1,0.425-3.1,0.627c-0.01,0.056-0.023,0.108-0.037,0.163c-3.023-1.939-7.471-2.962-11.557-2.982
		c-2.047-0.009-4,0.232-5.641,0.733c-0.986,0.316-1.859,0.732-2.578,1.237c-3.328-0.418-6.666-0.835-10.062-1.193
		c-1.938-1.183-4.16-2.28-6.686-3.28c7.322-1.641,11.9-4.237,12.965-8.418c0.18-0.711,1.014-1.379,1.717-2.277
		c-7.299-1.646-15.223-2.883-21.707-4.91c-1.766-0.573-3.543-0.997-5.326-1.376c-1.783-0.379-3.572-0.697-5.363-0.955
		c-3.584-0.517-7.176-0.794-10.76-0.845c-7.164-0.185-14.273,0.913-21.17,2.71c-4.436,1.167-8.553,2.504-12.76,3.965
		c-2.484,0.951-5.041,1.929-7.719,2.955c-0.869-0.062-1.74-0.124-2.607-0.178c-4.762-0.294-9.476-0.47-14.147-0.545
		c-1.166-0.013-2.332-0.042-3.494-0.025l-3.478,0.091c-0.771,0.024-1.538,0.055-2.307,0.083c-3.981-0.44-7.991-0.883-12.067-1.333
		c-1.499,0.765-3.041,1.527-4.595,2.321c-0.542,0.044-1.087,0.084-1.631,0.13c-9.053,0.948-18.019,2.209-27.032,3.6
		c-4.46,0.821-8.961,1.65-13.519,2.489c-2.263,0.425-4.538,0.853-6.83,1.283c-1.143,0.214-2.29,0.428-3.441,0.645
		c-1.149,0.217-2.286,0.485-3.435,0.726c1.036,0.062,2.054,0.122,3.055,0.18c1.01,0.068,2.003,0.134,2.98,0.2
		c1.958,0.114,3.857,0.192,5.707,0.235c3.703,0.086,7.213,0.034,10.619-0.134c6.792-0.417,13.242-0.917,19.861-1.819
		c2.153-0.284,4.545-0.554,6.915-0.731c0.041-0.004,0.08-0.005,0.118-0.008c1.68,0.548,3.146,1.026,4.505,1.47
		c-0.483,2.418-3.678,4.37-6.95,6.303c-1.339,0.195-2.675,0.39-4.01,0.584l1.121,1.162c-1.092,0.696-2.094,1.407-2.889,2.151
		l-7.499,0.666c-2.88,0.225-5.729,0.603-8.582,0.943l-8.545,1.039l-8.531,1.04c-0.251,0.03-0.5,0.066-0.75,0.097
		c-1.698-1.215-4.193-2.067-9.182-1.967c-5.523,0.129-10.48,0.798-14.963,2.022c-4.457,1.28-8.511,2.982-12.392,4.934
		c-0.059,0.03-0.118,0.06-0.176,0.089c-2.078-0.046-4.117-0.339-6.068-1.026c-5.15-1.979-22.718,1.539-29.05,5.415
		c-3.923,2.47-8.486,4.376-13.6,5.892c-2.55,0.768-5.231,1.457-8.007,2.117c-2.576,0.62-5.179,1.322-7.858,1.995
		c-3.737-1.027-9.46-2.561-15.075-3.991c-1.873,0.674-2.905,1.11-3.97,1.481c-6.545,2.192-12.914,4.57-19.022,7.136
		c-5.792,2.582-11.253,5.428-16.437,8.403c-17.96,1.719-33.254,6.661-45.414,14.177c1.177-1.297,2.427-2.655,3.76-4.133
		c-6.209,2.315-12.564,2.569-17.976,3.884c-5.455,1.258-10.248,3.395-13.15,9.116c6.29,0.98,11.339,1.812,17.55,2.891
		c1.644-2.023,3.212-3.956,4.819-5.938c0.744,0.147,1.556,0.168,2.428,0.08c1.767-0.183,3.792-0.799,6.1-1.569
		c2.577-0.892,5.421-2.075,8.427-3.268l-1.858,1.825l1.808,0.241c-1.662,1.076-3.093,1.899-4.598,2.421
		c-14.703,5.23-27.85,11.59-39.454,18.761c-1.597,0.444-3.237,0.899-4.922,1.37c0.244,0.472,0.473,0.91,0.69,1.326
		c-1.121,0.736-2.224,1.479-3.313,2.23c-2.147-0.591-4.434-0.768-7.06-0.495c-2.593,0.27-5.514,0.976-8.953,2.151
		c-1.719,0.589-3.566,1.296-5.566,2.125c-1.96,0.852-4.017,1.858-6.267,2.982c0.721,2.654,1.485,5.35,2.441,8.496
		c-6.961,3.245-10.292,1.387-13.457-0.35c-3.164-1.726-6.259-3.365-12.57,0.841c2.748,3.26,5.488,6.443,8.926,10.312
		c2.215-0.476,4.452-0.965,6.697-1.451c-0.02,0.014-0.041,0.024-0.059,0.037c-1.688,1.094-3.271,2.224-4.768,3.377
		c-1.485,1.16-2.781,2.406-4.072,3.635c-2.555,2.476-4.857,5.015-7.092,7.558l-1.663,1.91l-1.548,1.963
		c-1.036,1.307-2.077,2.607-3.149,3.899c-2.151,2.623-4.429,5.194-6.588,7.91c-2.081,2.736-4.221,5.549-6.467,8.503
		c4.143-1.138,8.702-2.757,12.591-3.29c1.911-0.261,3.729-0.628,5.54-1.13c1.853-0.482,3.672-1.112,5.493-1.938
		c3.655-1.647,7.272-4.103,11.321-7.724c10.619-8.966,22.685-17.345,34.312-24.603c4.932,0.215,7.774,0.368,10.028,0.49
		c1.348-1.282,2.536-2.579,3.784-3.781c0.661,0.155,1.32,0.319,1.971,0.503c1.128,0.31,5.494-2.02,8.518-3.922l0.944,0.665
		c0.853-0.273,1.705-0.548,2.571-0.825c-2.065,1.457-4.224,2.896-6.518,4.314c-0.852,0.526-1.719,1.049-2.607,1.57
		c-0.899,0.511-1.79,1.04-2.664,1.589c-1.775,1.083-3.629,2.153-5.574,3.214c-2.641,1.44-5.236,2.952-7.792,4.506
		c-2.536,1.569-4.873,3.283-7.274,4.963c-0.379,0.273-0.759,0.548-1.138,0.821c-2.565-0.47-5.435-0.769-8.499-1.005
		c0.397,2.124,0.804,4.188,1.248,6.3c-1.837,1.426-3.605,2.885-5.432,4.303c-0.979,0.771-1.425,1.808-2.211,3.377
		c-0.167,0.018-0.328,0.033-0.497,0.051c0.083,0.157,0.162,0.308,0.24,0.458c-0.176,0.342-0.369,0.706-0.588,1.099
		c-0.356,0.461-0.752,0.882-1.244,1.22c-1.421,0.98-3.586,1.325-6.274,2.25c2.858,1.108,4.979,1.932,6.894,2.673
		c-0.696,0.689-1.405,1.394-2.13,2.111c-1.933-1.85-3.272-3.132-5.52-5.284c-2.005,2.105-4.266,4.131-6.047,5.86
		c-0.801,0.776-1.504,1.492-2.037,2.132l0.179-1.143c-1.155,0.236-2.308,0.474-6.126,1.256c0.979,1.001,1.348,1.878,2.25,2.137
		c0.664,0.19,1.684-0.031,2.651-0.193c-0.017,0.535-0.074,1.059-0.165,1.571c-0.865,0.261-1.524,0.59-2.054,1.065
		c-0.656,0.589-1.119,1.399-1.547,2.562c-0.417,1.117-0.81,2.565-1.158,4.497c-0.674,0.681-1.399,1.352-2.171,2.017
		c-0.773,0.73-1.59,1.455-2.446,2.176c-1.216,1.027-2.507,2.05-3.832,3.078c-0.359-0.326-0.735-0.669-1.134-1.034
		c-0.085,0.753-0.133,1.427-0.155,2.032c-0.08,0.062-0.159,0.123-0.239,0.186c0.069,0.246,0.144,0.484,0.226,0.714
		c0.004,0.398,0.021,0.763,0.05,1.084c0.089,0.977,0.311,1.612,0.778,2.017c0.933,0.81,2.849,0.68,6.653,0.461
		c-0.52-0.449-1.004-0.869-1.471-1.275c1.514-0.713,3.371-1.995,5.656-3.99c0.832-0.724,2.147-1.655,3.312-2.365
		c1.219-0.688,2.263-1.166,2.453-1.04c1.624,1.071,3.309,1.067,4.946,0.48c-11.303,10.855-21.39,22.239-30.167,34.055
		c-0.024-0.348-0.041-0.694-0.041-1.037c-2.593,0.77-4.998,1.61-7.52,2.436l0.214,2.033l5.911-1.477
		c-4.181,5.744-8.051,11.59-11.604,17.524c-0.253-0.204-0.481-0.419-0.69-0.645c-0.831-0.901-1.339-2.003-1.734-3.532
		c-0.385-1.528-0.737-3.501-0.898-6.084c-0.226-2.722-1.077-5.409-2.344-7.747c0.716-1.502,1.279-2.923,1.655-4.258
		c0.66-2.327,0.99-4.348,0.508-6.119c-0.906-3.524-4.519-5.969-11.814-6.962c-1.888,3.308-3.72,6.004-4.936,8.791
		c-1.18,2.993-0.516,5.893-0.128,8.784c-0.409,0.46-0.826,0.948-1.25,1.467c-2.985,3.494-5.451,7.128-8.72,11.621
		c2.419-0.221,4.756-0.433,7.412-0.658c0.134,0.218,0.281,0.412,0.427,0.556c1.424,1.384,2.543,2.858,3.416,4.438
		c-1.942,1.958-3.531,3.562-5.104,5.148c-3.238,3.323-7.824,6.589-2.821,9.67c1.203-0.514,2.383-1.026,3.553-1.535
		c0.876,1.91,1.733,3.798,2.674,5.671c0.134,0.504,0.359,0.906,0.658,1.229c0.956,1.772,1.908,3.537,2.852,5.285
		c-3.369,1.949-5.408,3.13-7.156,4.142c0.205,1.057,0.48,2.07,0.817,3.033c-0.53,0.75-1.047,1.583-1.573,2.518
		c-1.325,2.518-2.488,5.793-4.147,10.16c1.221-0.292,2.677-0.222,3.289-0.85c2.03-2.082,4.15-3.978,6.382-5.695
		c0.408,0.343,0.844,0.653,1.314,0.936c-5.086,14.966-8.222,30.312-9.262,45.897c-3.261,2.992-5.254,6.407-0.391,12.417
		c0.059,11.656,1.302,23.425,3.774,35.245c-0.388,0-0.723,0.067-0.986,0.225c-0.088,0.053-0.175,0.099-0.264,0.147
		c-1.439-1.389-2.712-2.618-3.896-3.761c-1.298-1.29-2.371-2.491-3.513-3.693l-2.665,0.791c-0.072,0.822-0.144,1.643-0.22,2.5
		c-0.059,0.857-0.039,1.745-0.064,2.706c-0.01,0.771-0.02,1.592-0.032,2.471c-3.015-0.744-5.991-2.036-8.907-2.903
		c0,0.002-0.001,0.002-0.001,0.002c-0.119-0.654-0.237-1.313-0.349-1.982c-0.471-3.978-0.975-8.239-1.554-13.141
		c2.493-0.371,6.398-1.126,10.37-1.466c2.216-0.189,4.126-0.757,5.463-1.814c1.344-1.059,2.035-2.602,1.635-4.772
		c-0.757-4.123-4.31-3.906-8.285-2.854c-2.817,0.751-8.784-0.088-9.067-1.206c-0.663-2.605-1.829-4.603-3.309-6.256
		c-1.391-1.655-3.071-2.967-4.902-4.194c-3.65-2.454-7.801-4.563-10.719-8.451c-2.528,3.654-4.433,6.446-7.073,10.387
		c2.542,2.199,5.264,4.259,7.849,6.272c2.607,2.013,5.194,3.979,7.871,5.981c-0.444,1.308-0.897,2.644-1.359,3.998
		c-0.464,1.36-0.941,2.742-1.274,4.139c-0.732,2.811-1.476,5.665-2.214,8.499c5.713,2.234,8.7,3.632,9.664,5.676
		c1.071,2.039,0.217,4.696-1.832,9.473c-0.678,1.596-1.258,3.246-1.933,5.032c3.115,2.236,5.95,4.025,8.982,5.98
		c2.914-1.965,5.614-3.781,8.381-5.551c4.703,0.856,8.192,2.702,10.967,5.213c1.73,1.5,3.259,3.239,4.662,5.141
		c-1.511-0.589-3.023-1.184-4.538-1.784l-0.771,2.255c2.698,1.259,5.319,2.506,8.062,3.713c0.103,0.174,0.207,0.341,0.308,0.517
		c0.206,0.35,0.464,0.684,0.752,1.026c-0.732-0.256-1.565-0.55-2.582-0.911c0.337,0.816,0.665,1.612,0.991,2.399
		c-1.419,0.18-2.906,0.268-4.45,0.295c-2.61-3.119-5.691-5.908-8.708-8.995c-2.73,3.601-0.489,7.28,1.117,10.767
		c-0.894,0.834-1.421,1.964-1.592,3.377c-0.996-0.014-2.033-0.08-2.888,0.09c-0.86,0.173-1.541,0.59-1.783,1.559
		c-0.183,0.935,0.083,2.394,1.032,4.646c1.936,0.501,3.379,0.604,4.393,0.26c0.216,1.293,0.432,2.583,0.774,3.858
		c-0.945-0.384-1.979-0.688-2.958-1.046c-0.336-0.126-0.661-0.263-0.971-0.409c-0.489-0.809-0.976-1.709-1.458-2.719l0.288,0.219
		c-0.024-0.056-0.045-0.109-0.069-0.163c-0.05-0.013-0.099-0.025-0.148-0.039c-0.935-0.863-1.875-1.734-2.817-2.605l-1.516-1.423
		l-1.407-1.442c-1.875-1.92-3.769-3.823-5.719-5.63c-4.192-3.875-9.093-7.244-11.646-2.639c-1.203,2.186-2.043,4.759-2.771,7.461
		c-0.343,1.36-0.69,2.742-1.036,4.115c-0.169,0.691-0.339,1.383-0.507,2.066c-0.139,0.679-0.278,1.355-0.416,2.022
		c3.551,1.479,4.837,0.563,6.392,0.223c1.482-0.326,2.817-0.45,4.051-0.351c0.24,1.523,0.441,3.086,0.744,4.62
		c0.612,2.442,1.428,4.818,2.916,6.834c4.046,5.413,4.222,8.449,0.905,12.043c-2.869,3.034-1.354,6.853,3.493,9.985
		c1.663,1.066,3.302,2.097,5.036,3.102c1.768,0.987,3.55,1.982,5.374,2.997c0.573,2.364,1.162,4.792,1.76,7.251
		c0.616,2.471,1.19,5,2.043,7.465c3.151-1.213,3.988-2.847,4.702-4.598c1.01-2.363,2.586-3.892,4.529-4.569
		c2.95,4.196,5.927,8.399,9.495,12.365c5.21,6.367,11.798,12.133,19.404,16.964c0.832,0.555,1.659,1.645,2.754,2.738
		c-0.262,1.299-0.555,2.755-0.576,2.854c3.044,2.638,6.037,5.229,8.989,7.784c3.142,2.453,6.239,4.875,9.311,7.273
		c1.526,1.199,3.048,2.393,4.562,3.581c1.586,1.151,3.166,2.299,4.742,3.443c3.147,2.292,6.25,4.584,9.309,6.904
		c7.144,5.163,14.491,10.215,22.054,15.128c0.15,0.433,0.299,0.855,0.448,1.28c0.582,1.64,1.162,3.274,1.91,5.382
		c1.581-1.036,2.888-1.935,3.621-2.839c8.63,5.437,17.54,10.685,26.763,15.692c8.919,5.024,17.854,9.236,22.52,15.71
		c2.514,3.18,6.077,6.43,10.891,9.563c1.207,0.781,2.482,1.562,3.856,2.314c1.407,0.72,2.895,1.428,4.47,2.117
		c3.149,1.38,6.638,2.69,10.483,3.896c1.429,0.441,2.825,0.995,4.265,1.57c1.457,0.56,2.926,1.183,4.429,1.842
		c3.002,1.321,6.144,2.799,9.589,4.229c5.603-0.748,11.375-1.729,17.614-2.823c3.306,1.367,7.021,3.012,11.261,4.364
		c4.323,1.233,9.185,2.162,14.583,2.208c2.059,0.008,4.804,0.614,7.789,1.316c3.007,0.663,6.21,1.495,9.05,2.133
		c3.436,0.785,6.873,1.567,10.313,2.352l10.457,2.077c3.489,0.676,6.978,1.35,10.461,2.025c3.532,0.563,7.069,1.102,10.604,1.618
		c2.773,0.402,5.673-0.593,8.946-1.01c-4.847-1.719-9.254-3.28-13.594-4.819l-3.213-1.147c-1.051-0.414-2.104-0.83-3.163-1.248
		c-2.106-0.839-4.241-1.688-6.451-2.567c3.842-0.09,7.228-0.171,10.219-0.243c2.979-0.081,5.597-0.235,7.848-0.289
		c1.072-0.031,2.066-0.054,2.994-0.065c1.911,0.759,3.137,1.301,4.455,1.554c0.688,0.133,1.684-0.683,2.534-1.066
		c-0.177-0.092-0.351-0.19-0.522-0.29c0.193,0.021,0.385,0.041,0.569,0.062c2.356,0.275,3.889,0.838,5.147,1.62
		c1.258,0.786,2.208,1.877,3.362,3.322c1.193,0.172,2.375,0.342,3.544,0.51c2.038,1.379,4.3,1.472,7.216,1.039
		c1.1,0.158,2.193,0.313,3.281,0.472c2.553,0.335,5.094,0.62,7.633,0.898c-0.75,0.12-1.488,0.26-2.206,0.43
		c-2.24,0.489-4.305,1.236-6.128,2.395c1.557,0.288,3.029,0.56,4.417,0.819c1.411,0.204,2.74,0.397,3.99,0.579
		c1.835,0.258,3.505,0.476,5.024,0.655l-1.368,0.194l8.027,3.931c1.461-0.204,2.938-0.502,4.398-0.758
		c-1.853-0.896-3.671-1.873-5.472-2.856c1.886,0.104,3.413,0.089,4.649-0.056c3.037-0.345,4.332-1.504,4.975-3.535
		c1.798,0.665,3.934,1.193,6.297,1.646c1.887,1.935,5.949,3.786,12.763,6.356c1.917-1.381,4.169-2.743,5.843-4.19
		c2.503,0.239,4.979,0.512,7.356,0.858c0.065,0.409,0.188,0.851,0.368,1.334c-4.678,1.134-8.568,2.062-13.532,3.225
		c5.072,0.563,9.873,0.534,14.509,0.254c0.256-0.011,0.51-0.031,0.764-0.049c0.405,0.676,0.865,1.404,1.379,2.19
		c-4.732,0.955-8.326,2.039-12.426,2.38c-2.001,0.169-3.808,0.42-5.452,0.753c-1.642,0.318-3.108,0.671-4.463,1.13
		c-0.713,0.238-1.391,0.499-2.043,0.781c-1.094,0.104-2.189,0.203-3.29,0.321c-4.151,0.418-8.354,0.858-12.729,1.205
		c2.83,0.863,6.842,1.503,9.687,2.223c-3.179,1.931-6.737,2.896-10.41,2.896l-2.535-0.148c-1.959-0.239-3.907-0.808-5.818-1.654
		c-2.294-1.012-4.535-2.417-6.635-4.213c-2.444-2.09-5.567-3.591-8.731-4.445c-3.128-0.927-6.29-1.243-8.875-0.8
		c-5.565,0.946-9.36,4.434-11.244,7.443c-1.773,2.805,3.401,5.349,10.85,7.048c2.39,0.58,4.734,1.084,6.929,1.74
		c2.2,0.639,4.289,1.354,6.267,2.135c3.957,1.561,7.473,3.396,10.579,5.411c-6.013,3.346-9.021,5.056-8.274,6.848
		c0.371,0.894,1.672,1.806,3.984,2.941c2.336,1.078,5.698,2.329,10.184,3.992c6.505,2.37,13.351,4.237,20.561,5.253
		c3.594,0.553,7.25,0.993,10.955,1.35c3.708,0.337,7.447,0.691,11.272,0.761c11.278,0.297,22.605,1.142,33.696,0.62
		c3.221-0.11,6.59-0.349,9.75-0.745c3.162-0.411,6.111-0.908,8.51-1.748c3.939-1.319,7.666-2.78,11.035-4.352
		c10.258-2.214,13.055-3.461,8.402-4.685c3.215-2.185,5.807-4.509,6.861-7.18c0.811-2.027,0.717-4.188-0.625-6.582
		c1.041-0.128,2.07-0.254,3.072-0.376c3.062-0.38,5.943-0.734,8.594-1.064c5.596,1.756,9.521,2.968,13.43,4.013
		c-2.605,1.443-3.664,2.645-3.689,3.654c-0.023,1.028,1,1.918,2.521,2.719c3.039,1.622,8.125,2.995,10.779,4.951
		c3.281-0.441,6.523-0.876,9.822-1.319c1.645-0.224,3.307-0.45,4.992-0.68c1.674-0.276,3.369-0.556,5.102-0.843
		c0.553-0.092,1.117-0.188,1.676-0.28c-2.646,2.93-2.365,5.962,1.623,8.935c2.729,2.036,9.217,4.534,13.979,4.258
		c5.152-0.22,12.07-3.502,14.316-5.873c2.93-3.083,1.795-6.524,2.91-9.809c0.988-2.94,1.758-6.208,4.164-9
		c2.434-2.737,6.389-5.249,13.912-6.533c4.074-0.719,8.17-1.631,12.195-2.67c4-1.102,7.973-2.228,11.93-3.154
		c1.977-0.464,3.949-0.877,5.924-1.214c1.977-0.332,3.955-0.588,5.9-0.82c3.91-0.421,7.855-0.421,11.895,0.214
		c2.967-2.197,5.75-4.16,8.295-6.145c2.521-2.022,4.867-3.957,7.055-5.906c1.182-1.047,2.117-2.079,2.748-3.088
		c0.23-0.059,0.465-0.116,0.699-0.178c2.266-0.597,4.516-1.264,6.752-1.966c1.607,1.416,6.162,2.183,9.959,2.474
		c3.932,0.302,8.883-0.572,15.117-1.092c-0.914-3.554-1.734-6.537-2.533-9.338c1.148-0.413,2.291-0.83,3.42-1.262
		c4.854-1.919,9.602-3.903,13.947-6.063c1.391-0.683,2.787-1.364,4.182-2.049c1.373-0.71,2.746-1.419,4.121-2.131
		c2.775-1.402,5.561-2.809,8.348-4.218l4.205-2.096l2.102-1.047l2.035-1.103c2.707-1.474,5.402-2.954,8.066-4.448
		c2.66-1.492,5.287-2.998,7.857-4.526c2.482-1.591,4.9-3.212,7.24-4.856c4.662-3.297,9.104-6.628,12.652-10.35
		c3.775-3.716,7.346-7.607,11.023-11.482c0.891,0.131,1.822,0.265,2.834,0.411c0.387-1.639,0.646-3.002,0.855-4.229
		c1.492-1.515,3.027-3.018,4.607-4.496c0.289-0.176,0.584-0.353,0.873-0.53c0.957,2.102,2.805,3.947,6.273,5.345
		c1.279,0.512,1.549,2.212,1.275,3.508c-0.32,1.54-0.805,3.108-1.354,4.713c-0.539,1.614-1.275,3.167-1.91,4.814
		c1.832-0.434,3.604-0.854,5.342-1.263c1.697-0.455,3.354-0.898,4.998-1.339c3.318-0.9,6.584-1.787,9.977-2.709
		c-2.695-1.793-4.93-3.28-8.303-5.524c6.838-2.445,11.988-4.579,17.168-6.882c2.379-1.072,4.719-2.22,7.049-3.389
		c2.248-1.166,4.389-2.415,6.602-3.61c-0.092-0.208-0.189-0.413-0.244-0.634c-0.947-4.061-2.066-7.989-5.207-10.335
		c-2.623-1.972-6.672-2.826-13.078-1.827c0.182-0.199,0.346-0.396,0.492-0.592c3.846-2.869,7.6-5.793,11.264-8.762l1.006,0.212
		c2.703-2.369,5.514-4.696,8.117-7.115l7.676-7.323l1.014,0.074c0.006,0.005,0.012,0.011,0.018,0.016
		c-1.391,1.927-2.779,3.854-4.389,6.083c-0.818,1.115-1.658,2.323-2.652,3.619c-1.037,1.278-2.16,2.668-3.406,4.208
		c6.014-4.191,8.684-6.445,11.402-8.539c-3.693,5.599-7.988,10.858-14.17,18.738c6.635-4.568,10.531-6.915,13.891-9.7
		c1.523-1.217,2.885-2.504,4.299-3.771l4.215-3.821l4.197-3.84c1.398-1.284,2.814-2.562,4.082-3.898
		c2.604-2.648,5.184-5.315,7.719-8.004c1.262-1.346,2.555-2.685,3.756-4.057l1.752-2.128c0.514,0.123,1.023,0.245,1.535,0.371
		l1.984-3.163c-0.416,0.001-0.828,0.001-1.244,0.001c1.215-1.54,2.35-3.107,3.436-4.697c1.232-1.853,2.521-3.691,3.543-5.611
		c2.146-3.809,4.252-7.617,6.779-11.286c3.566-5.53,7.125-11.055,10.689-16.581l4.908-8.419c1.316-2.291,2.686-4.577,3.867-6.903
		c0.609-0.534,1.236-1.059,1.891-1.562c1.787-1.366,3.758-2.611,5.744-3.774c3.857-2.188,6.535-4.51,7.91-7.124
		c0.686-1.308,1.047-2.688,1.066-4.158c-0.037-1.48-0.496-3.066-1.275-4.754c-0.012-0.032-0.029-0.065-0.043-0.099
		c1.076-2.646,2.164-5.265,3.408-7.691c0.992,0.729,2.346,1.538,3.783,2.727c0.326-0.873,0.627-1.61,0.895-2.246
		c0.23-0.642,0.422-1.182,0.592-1.642c0.32-0.925,0.484-1.546,0.404-2.095c-0.246-1.608-0.854-3.135-1.609-4.544
		c0.463-1.347,0.52-2.74,0.369-4.146c1.371-2.857,3.246-5.159,6.467-6.088c0.418-0.115,0.99-1.042,1.494-2.19
		c0.096-0.058,0.186-0.111,0.281-0.171c-0.064-0.016-0.125-0.029-0.188-0.042c0.479-1.131,0.879-2.436,1.01-3.384
		c0.311-2.444,0.9-4.886,1.307-7.348c0.369-2.462,0.76-4.932,1.021-7.402c0.229-2.141,0.346-4.282,0.289-6.414
		c0.779-0.609,1.488-1.312,2.029-2.153c0.902-1.394,1.529-3.167,1.74-5.517c-1.738,0.335-3.395,0.652-5.01,0.958
		c-0.178-0.526-0.365-1.049-0.572-1.573c-0.5-1.227-0.104-3.693,0.66-6.336c0.234-0.827,0.523-1.668,0.818-2.496
		c0.607,0.114,1.236,0.233,1.91,0.36c-0.42-1.069-0.701-2.142-0.895-3.209c0.277-0.737,0.562-1.418,0.836-2.008
		c1.496-3.196,4.889-4.077,7.164-6.603c0.861-0.956,1.615-2.145,2.443-3.58c0.816-1.436,1.781-3.12,2.773-5.066
		c-5.887-1.864-10.084-3.139-14.256-4.386C919.792,572.744,919.454,570.511,919.298,568.393z M919.968,575.653
		c-0.113,0.622-0.225,1.247-0.344,1.876c-0.172-0.316-0.359-0.629-0.57-0.936C919.331,576.303,919.634,575.993,919.968,575.653z
		 M-16.813,680.962c2.815-1.199,5.605-2.378,8.443-3.549c3.305,3.677,3.987,4.394,2.381,8.009c-0.447-1.078-0.894-2.193-1.255-3.393
		c-1.77,1.445-3.528,2.44-5.265,2.748C-13.969,683.485-15.391,682.223-16.813,680.962z M450.005,286.459
		c1.17,0.086,2.338,0.204,3.494,0.334c0.27,0.362,0.621,0.689,1.088,0.977c1.311,0.82,3.457,1.239,6.811,1.39
		c2.771,0.097,5.012-0.036,6.816-0.45c0,0,0.02,0.003,0.029,0.005c2.75,0.393,5.285,0.783,7.496,1.154
		c2.207,0.413,4.084,0.835,5.547,1.195c-2.006-0.179-4.004-0.385-6.012-0.52c-2.016-0.108-4.025-0.218-6.037-0.327
		c-4.016-0.19-8.025-0.378-12.021-0.567c-1.998-0.076-3.986-0.205-5.986-0.235c-1.994-0.035-3.988-0.07-5.982-0.105
		c-3.096-0.058-6.184-0.128-9.266-0.209c3.387-0.809,6.451-1.779,9.088-3.056C446.704,286.176,448.357,286.315,450.005,286.459z
		 M915.163,492.923c-0.533-2.651-1.068-5.304-1.965-9.764C918.263,487.461,917.962,490.232,915.163,492.923z M483.37,891.731
		c0.143-0.208,0.295-0.433,0.463-0.675c0.18,0.205,0.4,0.405,0.66,0.597C484.12,891.678,483.747,891.707,483.37,891.731z
		 M906.245,581.89c0.211,0.252,0.436,0.512,0.662,0.773c-0.283,0.81-0.584,1.633-0.904,2.472c0-1.631-0.201-2.983-0.508-4.111
		C905.741,581.309,905.991,581.596,906.245,581.89z M265.851,335.611c2.204,0.076,4.967,0.17,8.326,0.285
		c1.548,0.036,3.26,0.149,5.092,0.272c1.117,0.54,2.29,1.018,3.697,1.287c-0.925,0.25-1.838,0.498-2.744,0.742
		c-0.944,0.26-1.888,0.502-2.805,0.769c-0.909,0.282-1.811,0.56-2.704,0.835c-3.556,1.103-6.978,2.162-10.304,3.192
		c-6.691,1.96-12.701,4.256-18.743,6.334c-1.697-0.599-4.985-1.745-7.984-2.76c3.678-1.494,7.802-3.169,12.408-5.041
		C254.687,339.574,259.99,337.734,265.851,335.611z M617.4,878.291c0.229-0.096,0.459-0.193,0.688-0.29
		c-0.029,0.017-0.055,0.036-0.084,0.055c-3.324,2.071-6.775,4.052-11.895,4.702C609.755,881.315,613.488,879.84,617.4,878.291z
		 M905.019,576.786c-0.537-0.92-1.076-1.847-1.627-2.79c-0.883-1.344-1.777-2.711-2.695-4.107c-0.652-0.968-1.318-1.955-1.988-2.952
		c0.357-0.548,0.703-1.104,1.041-1.668c1.648-2.719,3.172-5.524,5.584-7.583c-0.002,0.306-0.002,0.612-0.012,0.914
		c-0.127,3.318-0.752,6.231-2.836,8.326c3.59,2.192,5.117,4.81,5.475,7.743C906.974,575.385,905.997,576.087,905.019,576.786z
		 M902.023,539.425c0.541,0.224,1.072,0.455,1.605,0.684c0.035,2.494,0.412,5.135,0.852,7.787c0.262,1.323,0.387,2.668,0.504,3.995
		c-1.621-1.312-3.24-2.596-4.811-3.889c0.312-0.541,0.74-1.044,1.342-1.496c-1.525-0.817-2.906-1.519-4.297-2.202
		c-0.135-0.066-0.271-0.134-0.404-0.2c-0.049-0.637-0.111-1.276-0.209-1.921c-0.143-0.87-0.287-1.742-0.428-2.614
		c0.906-0.639,1.83-1.145,2.828-1.418C900.003,538.568,901.005,538.992,902.023,539.425z M769.388,378.362
		c-0.191-0.04-0.379-0.08-0.566-0.119c0.162-0.419,0.326-0.843,0.488-1.27C769.361,377.434,769.382,377.897,769.388,378.362z
		 M764.499,373.346c-0.537,0.386-1.086,0.765-1.641,1.129c-0.316-0.378-0.631-0.752-0.939-1.125
		C762.786,373.347,763.642,373.346,764.499,373.346z M500.804,291.17c-0.727,0.035-1.424,0.073-2.125,0.123l-3.627-2.532
		c2.08-0.011,4.518-0.308,6.166,0.039c1.248,0.271,2.098,0.834,3.105,1.459c-1.295,0.024-2.59,0.047-3.885,0.069
		C500.564,290.621,500.685,290.901,500.804,291.17z M0.38,700.487c0.063,0.041,0.124,0.078,0.188,0.117
		c-0.035-0.062-0.063-0.123-0.096-0.185c0.552-0.406,1.15-0.824,1.808-1.257c1.685-1.105,2.687-2.29,3.027-3.71
		c0.527,0.584,1.089,1.155,1.717,1.7c-0.297-0.475-0.588-0.939-0.875-1.396c-0.245-0.439-0.482-0.87-0.718-1.293
		c0.037-1.221-0.335-2.611-1.124-4.258c-1.144-2.624-1.455-5.403-1.364-8.202c3.408,4.025,5.097,8.691,7.852,13.008
		c1.306,2.17,2.722,4.279,4.481,6.201c0.879,0.961,1.845,1.875,2.924,2.726c1.045,0.766,2.201,1.47,3.464,2.115
		c0.021,0.032,0.043,0.066,0.065,0.099c-2.461,0.929-4.923,1.857-7.574,2.856c0.057,0.77,0.114,1.58,0.175,2.415
		c-4.404,1.532-8.914-0.596-13.05-4.361c-1.312-1.158-2.621-2.462-3.933-3.836C-1.954,702.365-0.939,701.464,0.38,700.487z
		 M83.159,771.625c1.113,0.727,2.271,1.426,3.442,2.117c1.674,1.274,3.368,2.535,5.076,3.787l-0.43,1.121l-4.706-2.71
		c-0.78-0.455-1.581-0.897-2.345-1.363l-2.246-1.425L83.159,771.625z M493.056,898.513c0.902,0.421,1.898,0.897,3.035,1.439
		c-1.734-0.059-3.346-0.11-4.867-0.16C491.855,899.353,492.464,898.928,493.056,898.513z M543.827,894.386
		c2.578-0.47,5.094-0.793,7.5-1.137c0.484-0.071,0.963-0.138,1.441-0.204c-0.801,0.784-1.949,1.528-3.523,2.237
		c-5.133,0.807-8.215,1.312-11.291,1.754c-2.791,0.399-5.58,0.726-10.707,1.374C533.183,896.592,538.665,895.302,543.827,894.386z
		 M628.782,873.33c0.277-0.122,0.551-0.242,0.834-0.364c-0.17,0.105-0.332,0.203-0.496,0.307
		C629.005,873.291,628.892,873.309,628.782,873.33z M918.534,470.589c0.504,3.942,0.104,7.246-5.201,7.185
		C911.804,473.192,915.154,471.887,918.534,470.589z M912.972,478.135c-0.547,1.442-1.1,2.886-1.646,4.334
		c-0.693,1.565-1.389,3.138-2.09,4.721C906.554,481.704,906.323,481.668,912.972,478.135z M897.423,504.29
		c0.297-1.734,0.658-3.612,0.832-5.74c4.504,0.63,7.912,1.123,12.48,1.861c-1.508,3.248-2.752,5.851-4.002,8.4
		c-0.766-1.992-2.049-4.354-4.014-7.924c-2.514,2.4-3.785,3.58-3.322,6.241c0.117,0.815,0.436,1.766,0.914,2.927
		c-1.244-0.275-2.486-0.55-3.768-0.829C896.831,507.613,897.115,506.015,897.423,504.29z M898.275,519.177
		c1.498-0.134,3.064-0.829,5.234-2.161c0.717,1.553,1.508,3.31,2.359,5.312c0.883-3.433,1.502-5.806,1.705-7.765
		c1.373,1.69,3.162,3.315,3.541,5.034c0.174,0.819-2.531,2.025-4.158,2.674c-1.143,0.459-2.314,0.88-3.498,1.275
		c-0.996,0.152-1.951,0.354-2.828,0.654c-0.543,0.183-1.055,0.403-1.533,0.667c-0.23,0.063-0.459,0.128-0.691,0.189
		c-1.801,0.485-3.49,1.027-4.965,1.738c-0.242-0.971-0.49-1.94-0.736-2.912l-1.188-4.574l-0.607-2.288l-0.074-0.222
		C894.306,518.49,896.202,519.362,898.275,519.177z M578.687,289.041c1.936,0.12,3.664,0.426,4.416,0.903
		c1.316,0.845,2.34,1.781,3.248,2.772c-0.979,0.011-1.963,0.022-2.949,0.035c-0.67-0.152-1.346-0.298-2.025-0.44
		c-1.721-0.312-3.457-0.616-5.148-0.973c-1.42-0.301-2.871-0.585-4.328-0.868c-0.303-0.338-0.602-0.654-0.906-0.949
		c0.652-0.157,1.332-0.282,2.053-0.354C574.595,289.011,576.736,288.949,578.687,289.041z M574.988,284.384
		c-3.58-0.727-5.334-1.082-6.984-1.417C569.22,281.227,569.372,281.29,574.988,284.384z M150.807,337.178
		c-0.7,0.425-1.354,0.835-1.973,1.229l0.923-0.881C150.106,337.409,150.455,337.292,150.807,337.178z M127.781,372.134
		c1.816-0.998,3.625-2.005,5.478-2.979l5.728-2.791c0.151-0.073,0.303-0.146,0.456-0.218c-0.094,0.174-0.187,0.351-0.281,0.525
		c-0.731,1.384-1.442,2.775-2.153,4.178c-0.239,0.062-0.483,0.123-0.719,0.189c-0.86,0.252-1.707,0.511-2.554,0.785
		c-6.685,2.166-9.477,3.904-9.055,6.146c-0.991-0.428-1.985-0.858-3.065-1.327c-2.352,2.283-4.321,4.196-6.172,5.992
		c-0.352-0.76-0.893-1.394-1.507-1.399c-0.371-0.002-0.718-0.011-1.057-0.024c1.319-1.047,2.702-2.053,4.21-2.996
		C120.587,376.163,124.16,374.137,127.781,372.134z M107.212,379.425l0.248-0.142l0.385,0.28l-0.358,0.206
		C107.378,379.661,107.289,379.547,107.212,379.425z M53.58,414.543c-0.66,0.428-1.314,0.852-1.964,1.274
		c-0.621,0.439-1.235,0.875-1.849,1.31c-1.227,0.87-2.443,1.735-3.66,2.598l-1.987-0.388c3.253-3.829,6.86-7.486,12.103-12.758
		c0.26-0.035,0.521-0.082,0.787-0.14c1.189-0.24,2.457-0.688,3.819-1.284c0.438,1.828,0.73,2.962,1.006,4.048
		C58.941,411.075,56.218,412.837,53.58,414.543z M66.748,395.855c-2.515,0.846-4.552,1.528-6.59,2.213
		c0.572-1.201,0.699-2.777,1.853-3.53c1.561-1.017,4.002-1.556,5.795-1.895C68.141,392.58,67.248,394.378,66.748,395.855z
		 M78.291,418.009c-0.392,0.351-0.785,0.703-1.177,1.054c-0.355,0.032-0.71,0.066-1.063,0.098c-0.738-0.063-1.403-0.121-2.027-0.175
		c1.419-0.726,2.73-1.396,4.017-2.054C78.123,417.287,78.207,417.647,78.291,418.009z M0.004,511.814
		c0.935,0.339,2.438,0.615,3.674,1.049c0.021-0.848,0.015-1.65-0.001-2.418c0.4-0.14,0.798-0.281,1.198-0.414
		c2.127-0.721,4.823-1.372,6.97-1.33c-2.52,4.55-4.849,9.15-6.99,13.796c-1.34-1.532-2.411-2.801-3.372-3.845
		c-1.254-1.359-2.307-2.34-3.304-3.021c-1.338-0.918-2.576-1.297-4.05-1.364C-3.886,513.408-1.937,512.582,0.004,511.814z
		 M-22.488,676.61l-0.003-0.002c0,0,0,0-0.001-0.002L-22.488,676.61z M76.556,778.969l-1.952-1.561l-3.899-3.121
		c-2.582-2.088-5.226-4.144-7.755-6.258c-2.438-2.159-4.878-4.321-7.324-6.488l-3.668-3.252c-1.252-1.073-2.317-2.233-3.488-3.349
		c-0.452-0.446-0.911-0.896-1.365-1.344c2.083,0.148,4.173,0.047,6.332-0.3c2.598-0.418,5.182-0.577,7.722-0.441
		c0.224,0.012,0.447,0.029,0.669,0.046c4.167,3.885,8.488,7.688,12.948,11.411c0.122,0.586,0.253,1.172,0.373,1.764
		c0.525,2.355,1.054,4.729,1.584,7.118c0.582,2.399,1.088,4.893,1.886,7.277L76.556,778.969z M90.66,798.95
		c-1.474-0.605-2.871-1.52-4.246-2.765c-1.358-1.253-2.787-2.781-4.024-4.784c0.785,0.355,1.544,0.698,2.283,1.03
		c0.769,0.316,1.515,0.624,2.252,0.926c1.471,0.601,2.902,1.185,4.363,1.783c2.903,1.178,5.93,2.407,9.651,3.918
		C96.866,800.135,93.61,800.162,90.66,798.95z M119.936,815.386l-4.508-3.938l-4.246-4.075l4.259,0.024l1.962,1.981
		c0.671,0.651,1.378,1.278,2.059,1.918c1.373,1.275,2.726,2.554,4.021,3.834C123.591,815.239,121.181,815.305,119.936,815.386z
		 M116.889,796.766c-2.843-1.161-5.748-2.274-8.431-3.531c-2.74-1.232-5.468-2.459-8.189-3.683l-4.098-1.848l-2.051-0.928
		l-1.971-0.98l0.834-1.795c6.237,1.398,11.989,3.57,17.531,6.461c3.625,2.328,7.313,4.611,11.062,6.85
		c1.305,0.935,2.608,1.909,3.914,2.925C122.598,799.071,119.733,797.915,116.889,796.766z M145.399,811.917
		c-2.893-1.295-5.549-2.779-8.314-4.179l1.522-0.559c2.487,1.322,4.879,2.727,7.488,3.952L145.399,811.917z M224.786,858.251
		c-2.755-0.574-5.521-1.12-8.18-1.805c-5.368-1.305-10.709-2.628-16.053-4.01c-3.258-0.894-6.299-2.456-9.288-3.641
		c0.513,0.019,1.026,0.037,1.541,0.055c6.866,1.334,13.911,2.133,20.746,2.766c1.095,0.11,2.193,0.208,3.293,0.295
		c1.753,0.654,3.284,1.229,4.619,1.74c2.961,1.057,5.029,1.792,6.509,2.446c2.974,1.297,3.68,2.157,5.12,3.888
		C230.303,859.402,227.536,858.825,224.786,858.251z M261.16,869.257c-1.094-0.183-2.202-0.368-3.3-0.554
		c-1.082-0.215-2.148-0.446-3.156-0.738c-2.392-0.688-4.573-1.578-6.835-2.381l0.607-0.621l6.525,1.607l3.263,0.804
		c1.089,0.267,2.208,0.479,3.31,0.72L261.16,869.257z M254.922,862.248c-0.208-2.443-0.407-4.986,9.458-3.97
		C267.544,861.954,261.659,862.396,254.922,862.248z M334.856,874.787c0.699-0.921,1.359-1.793,2.012-2.652
		c2.007,0.373,4.019,0.74,6.039,1.096c0.292,0.604,0.717,1.149,1.258,1.646C341.04,874.815,337.893,874.72,334.856,874.787z
		 M404.628,906.302c-1.443-0.117-2.891-0.235-4.351-0.356c0.193-0.335,0.405-0.665,0.636-0.993
		C402.021,905.346,403.251,905.799,404.628,906.302z M414.647,908.206c13.813-1.405,12.727,2.273,16.452,3.984
		c5.561-0.499,10.967-0.984,16.117-1.446c-1.98,0.744-3.705,1.491-5.064,2.349c-2.746,1.724-5.844,2.991-9.225,3.871
		c-0.643,0.152-1.295,0.289-1.957,0.417c-1.795,0.135-3.605,0.25-5.426,0.353c-3.748,0.207-7.545,0.352-11.366,0.477
		c-2.631,0.118-5.272,0.175-7.918,0.209c-0.968-0.062-1.943-0.13-2.926-0.188c-2.19-0.143-4.417-0.287-6.671-0.434
		c0.314-1.631,0.456-2.917,0.689-4.07c1.499-0.09,3.061-0.19,4.713-0.306c2.511-0.173,5.221-0.358,8.192-0.706
		c-1.572-2.049-3.093-4.034-4.585-6.105C408.759,907.318,412.405,908.411,414.647,908.206z M406.24,901.306
		c10.096-1.268,13.261-0.045,10.916,3.261C413.748,903.562,410.369,902.585,406.24,901.306z M457.921,900.91
		c-1.736,0.989-3.654,1.982-5.861,2.798c-8.646,3.305-20.523,2.393-22.049-1.529c-1.238-3.081-4.402-5.365-12.797-6.917
		c-4.464,0.737-7.839,1.29-10.427,1.623c-2.588,0.26-4.386,0.326-5.717,0.161c-2.655-0.331-3.436-1.589-4.947-4.104
		c-1.104-0.108-2.185-0.197-3.253-0.275c-1.122-1.152-2.284-2.483-3.879-3.935c11.248,2.144,18.692,2.271,23.006-1.193
		c1.161-0.939,1.523-2.259,1.278-3.683c3.533,0.057,7.237,0.381,11.23,1.098c-4.917,1.173-8.04,1.918-11.129,2.655
		c7.387,3.516,11.559,5.291,16.678,5.574c5.102,0.148,11.254-1.148,22.584-3.815c4.5-1.189,10.723-1.646,16.016-2.428
		c0.834,1.953,3.148,3.396,1.693,4.616c-2.379,1.986-4.674,4.042-7.379,6.045c-0.348,0.004-0.695,0.002-1.043-0.013l-0.596,1.183
		C460.269,899.496,459.144,900.213,457.921,900.91z M526.226,914.115c-1.695,0.706-3.223,1.428-4.574,2.161
		c-2.203-0.046-4.324-0.091-6.357-0.133c-3.246-0.093-6.268-0.104-9.236-0.268c-2.953-0.157-5.812-0.308-8.674-0.461l6.449-0.743
		l3.229-0.371l3.199-0.456c1.113-0.163,2.229-0.329,3.342-0.498c0.564-0.019,1.131-0.039,1.695-0.065
		c0.098-0.005,0.197-0.1,0.297-0.241c2.465-0.383,4.92-0.779,7.354-1.207c3.703-0.652,4.562-1.909,6.129-3.123
		c1.584-1.183,3.805-2.453,10.297-3.13c1.297-0.14,2.635-0.357,3.994-0.629c0.629-0.035,1.297-0.071,2.008-0.11
		C537.935,908.625,532.386,911.633,526.226,914.115z M667.615,852.808c0.625-0.227,1.248-0.45,1.873-0.675
		c0.045-0.002,0.094-0.005,0.137-0.007c1.619-0.117,3.262-0.249,4.932-0.389c-1.916,0.832-3.863,1.636-5.783,2.464L667.615,852.808z
		 M693.335,842.167c-0.82,0.507-1.641,1.014-2.465,1.525c-0.018,0.008-0.082,0.008-0.158,0.005c1.318-1.191,2.812-2.251,4.475-3.187
		l0.488,0.056C694.896,841.099,694.134,841.648,693.335,842.167z M850.755,733.302l-2.611,3.155l-5.24,6.292
		c-3.383,4.229-7.348,8.252-11.105,12.337l-1.412-1.229c0.203-0.363,0.408-0.729,0.609-1.101c3.582-3.604,7.229-7.197,10.449-10.949
		l5.381-6.039l2.678-3.031l2.477-3.099l1.176,0.445L850.755,733.302z"/>
	<path fill="#FFFFFF" d="M-67.75,520.936c1.557-7.614,4.448-12.24,10.614-17.438c1.847-1.604,3.381-3.384,4.595-5.257
		c0.609-0.938,1.136-1.896,1.581-2.867c0.46-0.968,0.921-1.929,1.252-2.901c1.37-3.879,1.413-7.788-0.031-10.984
		c-2.179,4.546-3.333,8.871-5.889,12.059c-3.012,4.102-6.12,8.113-9.304,12.119c-1.646,1.99-3.04,4.033-4.508,6.073
		c-1.457,2.042-2.906,4.096-4.333,6.172c-0.898,1.318-2.138,2.837-3.11,4.277c-0.905,1.453-1.604,2.816-1.586,3.785
		c0.043,2.422-0.219,4.808-0.683,7.177c-0.233,1.185-0.517,2.364-0.837,3.543c-0.341,1.175-0.556,2.37-0.886,3.553
		c-0.62,2.37-1.339,4.738-2.054,7.114l-1.06,3.57l-0.502,1.79l-0.362,1.804c-0.681,3.642-1.101,7.303-1.461,11.211
		c-0.083,0.979-0.193,1.97-0.245,2.983c-0.018,1.016-0.038,2.051-0.056,3.109c-0.046,2.116-0.094,4.325-0.144,6.66
		c1.325-2.86,2.328-4.99,3.094-6.752c0.769-1.762,1.268-3.157,1.792-4.525c0.973-2.739,1.381-5.411,2.238-10.767l0.43-2.734
		c0.149-0.911,0.382-1.816,0.569-2.725l1.208-5.444c0.869-3.624,1.595-7.269,3.014-10.81c0.876-2.379,2.369-4.808,3.709-7.148
		C-69.365,525.239-68.214,522.977-67.75,520.936z"/>
	<path fill="#FFFFFF" d="M-57.956,555.8c0.435-1.02,0.971-2.032,1.444-3.056c0.959-2.046,1.928-4.116,2.916-6.224
		c1.006-2.102,1.884-4.255,3.041-6.417c1.172-2.154,2.372-4.357,3.605-6.622c-3.099-8.816-4.271-8.806-11.577,1.63
		c-1.12,1.617-2.189,3.254-3.136,4.919c-0.863,1.677-1.654,3.373-2.385,5.085c-1.429,3.429-2.76,6.906-3.675,10.441
		c-1.629,7.093-2.874,14.292-3.311,21.529l2.741,1.541c1.413-3.341,2.761-6.626,4.335-9.898c1.647-3.267,3.254-6.537,4.708-9.885
		C-58.819,557.832-58.388,556.817-57.956,555.8z"/>
	<path fill="#FFFFFF" d="M-28.705,493.6c0.395-2.095,0.723-3.842,1.026-5.457c0.321-1.618,0.558-3.127,1.005-4.674
		c3.479-1.212,6.131-2.135,8.782-3.059c-0.198,1.718-0.395,3.435-0.619,5.384c-0.051,0.485-0.105,0.983-0.16,1.5
		c-0.023,0.524-0.05,1.066-0.076,1.629c-0.047,1.122-0.1,2.33-0.157,3.656c4.355-4.957,7.081-7.436,10.735-11.107
		c-3.9-0.529-6.688-0.907-9.47-1.284c1.403-1.205,2.808-2.411,4.558-3.913c0.881-0.745,1.817-1.571,2.938-2.487
		c1.156-0.902,2.448-1.911,3.925-3.063c-11.218,2.785-15.755,0.855-13.005-8.487c0.348-1.176-2.598-1.257-4.427-2.016
		c-2.024,5.003-3.68,8.814-4.959,13.048c-3.396,0.522-5.777,0.898-9.658,1.534c-0.455,2.279-1.26,4.716-1.783,6.816
		c-0.405,2.133-0.559,3.92,0.11,4.854C-37.553,489.788-33.163,491.025-28.705,493.6z"/>
	<path fill="#FFFFFF" d="M162.634,315.927c1.05-0.357,2.121-0.722,3.217-1.095c2.193-0.744,4.485-1.52,6.913-2.342
		c-0.622,1.321-2.221,2.485-4.211,3.549c-1.979,1.078-4.404,1.994-6.511,3.011c-4.265,1.973-7.747,3.762-5.722,5.672
		c3.23-0.464,6.405-1.396,9.568-2.541c2.444-0.86,4.94-1.782,7.428-2.719c4.371-0.538,7.556-1.5,10.217-2.939
		c0.678-0.361,1.317-0.762,1.934-1.19c3.191-0.813,6.395-1.293,9.62-1.129c0.009-0.007,0.899-0.554,1.378-0.848l-2.396,0.203
		c2.328-2.343,4.708-4.697,7.087-7.016c-8.542-0.135-13.114-0.142-16.678,0.203c-3.567,0.353-6.065,1.186-10.741,2.675
		c-5.691,1.841-9.952,3.234-13.199,4.345c-3.186,1.183-5.355,2.085-6.941,2.855c-3.163,1.549-3.944,2.629-5.469,4.776
		c3.78-1.432,7.508-2.844,11.471-4.344C160.593,316.686,161.584,316.289,162.634,315.927z"/>
	<path fill="#FFFFFF" d="M172.373,866.097c-2.477-1.553-7.316-2.771-10.903-4.335c-1.104,1.046-4.085,1.832-2.922,3.189
		c2.093,2.556,6.317,5.313,10.818,7.791c1.887,1.03,3.833,2.052,5.843,3.08c2.007,1.032,4.077,2.071,6.294,3.039
		c4.429,1.981,9.088,4.064,14.106,6.307c0.532-1.874,0.978-3.441,1.099-3.869c-4.928-2.949-9.134-5.562-13.086-7.988
		C179.732,870.808,176.162,868.414,172.373,866.097z"/>
	<path fill="#FFFFFF" d="M-44.215,514.276c0.411-0.804,0.77-1.581,1.184-2.321c0.424-0.736,0.835-1.448,1.234-2.14
		c0.799-1.381,1.553-2.682,2.28-3.938c1.462-2.507,2.823-4.841,4.261-7.306c-2.265-1.341-3.877-2.295-6.553-3.882
		c-0.958,2.013-1.687,3.777-2.314,5.331c-0.624,1.554-1.098,2.905-1.274,4.145c-0.187,1.31-0.089,2.512,0.136,4.047
		C-45.012,509.754-44.763,511.603-44.215,514.276z"/>
	<path fill="#FFFFFF" d="M-57.187,614.974c-0.905-1.695-2.275-3.819-4.099-6.689c-0.538,7.356-0.107,12.788,0.005,18.243
		c3.813-3.525,5.731-5.227,5.671-7.479C-55.64,617.924-56.163,616.663-57.187,614.974z"/>
	<path fill="#FFFFFF" d="M126.979,850.261c0.879-1.163,0.427-3.18-1.425-5.999c-0.706-1.078-1.511-2.092-2.404-3.054
		c-0.895-0.96-1.884-1.864-2.876-2.78c-2.022-1.803-4.356-3.442-6.908-5.003c-2.551-1.561-5.322-3.039-8.209-4.521
		c-2.831-1.516-5.688-3.09-8.599-4.708c-3.622,2.93-6.47,5.233-9.643,7.8c1.559,1.271,3.035,2.474,4.445,3.623
		c1.386,1.171,2.856,2.192,4.21,3.229c2.749,2.05,5.366,3.946,8.122,5.766c1.464,0.967,3.135,1.881,4.88,2.709
		c1.727,0.842,3.655,1.506,5.446,2.113c2.745,0.902,5.074,1.488,6.989,1.776c0.562,0.207,1.145,0.416,1.772,0.629
		c3.583,1.144,8.166,2.403,14.004,3.91c-2.625-1.472-5.125-2.87-7.531-4.216C128.484,851.105,127.728,850.682,126.979,850.261z"/>
	<path fill="#FFFFFF" d="M26.166,472.842c2.541,0.037,5.807-0.734,8.224,0.513c1.162-5.998-0.589-7.229-3.289-7.062
		c-2.686,0.158-6.282,1.703-8.545,1.03c-0.497,2.271-0.092,3.684,0.567,4.474C23.813,472.595,24.898,472.822,26.166,472.842z"/>
	<path fill="#FFFFFF" d="M-41.334,545.618c0.13-0.975,0.136-1.986,0.074-3.279c0.018-1.284-0.027-2.851-0.082-4.95
		c-0.617,1.624-1.18,3.11-1.704,4.49c-0.465,1.388-0.828,2.682-1.206,3.897c-0.737,2.436-1.386,4.591-2.036,6.746l2.551,0.453
		C-42.306,549.362-41.588,547.565-41.334,545.618z"/>
	<path fill="#FFFFFF" d="M-55.666,644.49c0.029,0.121,0.059,0.239,0.088,0.36c0.058-0.052,0.112-0.104,0.174-0.155L-55.666,644.49z"
		/>
	<path fill="#FFFFFF" d="M-54.026,660.637l2.514,0.07c-1.37-5.287-2.833-10.562-4.067-15.857
		C-60.717,649.308-56.622,655.132-54.026,660.637z"/>
	<path fill="#FFFFFF" d="M131.342,843.86c-1.019-0.589-1.983-1.226-2.973-1.836l-3.054,1.292l3.275,1.746
		c1.103,0.572,2.25,1.107,3.372,1.662l6.789,3.297l1.825-0.877l-6.166-3.525L131.342,843.86z"/>
	<path fill="#FFFFFF" d="M57.894,805.058l-4.966-1.788c1.055,2.636,2.042,5.357,3.252,7.98l3.627,1.13l-1.044-3.638
		C58.429,807.533,58.179,806.282,57.894,805.058z"/>
	<path fill="#FFFFFF" d="M-70.072,550.549l-1.992,0.324l-0.447,2.753c-0.129,0.919-0.187,1.844-0.281,2.766l-0.503,5.526
		l2.761-0.581C-70.449,557.749-70.503,554.132-70.072,550.549z"/>
	<path fill="#FFFFFF" d="M-55.673,644.483c0.007,0.007,0.269,0.212,0.269,0.212c-0.065-0.132-0.13-0.266-0.196-0.399
		C-55.625,644.359-55.648,644.419-55.673,644.483z"/>
	<path fill="#FFFFFF" d="M-59.881,635.59c1.752,3.563,3.028,6.158,4.28,8.706C-54.007,640.143-54.082,640.132-59.881,635.59z"/>
	<path fill="#FFFFFF" d="M251.844,294.651l3.263-0.779c1.089-0.253,2.199-0.466,3.298-0.698l-1.02-0.825
		c-2.28,0.466-4.502,1.057-6.726,1.606c-2.219,0.557-4.425,1.111-6.607,1.659c-0.348,0.289-0.623,0.518-0.897,0.745
		c0.723-0.05,1.505-0.012,2.157-0.163L251.844,294.651z"/>
	<path fill="#FFFFFF" d="M16.973,484.401c0.731-0.956,1.455-1.916,2.288-2.842l-1.767-0.467c-0.669,0.987-1.215,2.012-1.782,3.03
		l-1.698,3.05l0.753,0.102L16.973,484.401z"/>
	<path fill="#FFFFFF" d="M35.689,452.981c0.136-0.104,0.276-0.205,0.406-0.312c0-0.002,0.001-0.007,0.002-0.016
		c0.032-0.023,0.062-0.047,0.094-0.07c-0.016-0.056-0.033-0.111-0.049-0.167C35.991,452.604,35.84,452.793,35.689,452.981z"/>
	<path fill="#FFFFFF" d="M27.867,463.411c1.728-2.421,3.151-4.415,4.422-6.194c1.225-1.524,2.32-2.89,3.4-4.235
		c-1.632,1.238-3.664,2.375-5.275,3.856C28.76,458.476,27.56,460.509,27.867,463.411z"/>
	<path fill="#FFFFFF" d="M609.38,282.749l0.176,0.171c0.023-0.002,0.047-0.003,0.072-0.006L609.38,282.749z"/>
	<path fill="#FFFFFF" d="M614.921,289.788c0.016,0.029,0.031,0.058,0.043,0.085l0.172,0.021L614.921,289.788z"/>
	<path fill="#FFFFFF" d="M942.706,581.393c0.453-1.973,0.906-3.951,1.385-6.039c0.115-0.523,0.236-1.054,0.357-1.593
		c0.088-0.538,0.178-1.087,0.27-1.646c0.178-1.119,0.363-2.28,0.557-3.494c-3.223-0.029-4.83-0.038-6.611,0.926
		c-0.893,0.479-1.824,1.205-3.021,2.282c-0.604,0.54-1.268,1.168-2.031,1.896c-0.801,0.728-1.709,1.554-2.748,2.498
		c2.562,0.312,4.895,0.213,6.871,0.952C939.771,577.939,937.902,583.315,942.706,581.393z"/>
	<path fill="#FFFFFF" d="M-23.32,499.251c-2.07,4.157,1.338,5.445,5.265,6.234c0.5-1.603,1.117-3.06,1.689-4.46
		c0.571-1.4,1.12-2.743,1.669-4.086l-1.954-1.807C-18.95,496.466-22.481,497.528-23.32,499.251z"/>
	<path fill="#FFFFFF" d="M941.275,633.7c-0.967,0.524-1.836,1.324-2.799,2.323c-0.977,0.995-1.965,2.2-3.014,3.555
		c4.482-0.093,6.73-0.149,8.301-0.812c1.555-0.666,2.533-1.924,4.123-4.508C945.267,632.666,943.177,632.647,941.275,633.7z"/>
	<path fill="#FFFFFF" d="M639.236,293.667c-3.342-1.18-5.631-1.987-7.896-2.788c-2.504,1.333-5.012,2.678-8.604,4.657
		C629.175,294.764,633.458,294.285,639.236,293.667z"/>
	<path fill="#FFFFFF" d="M615.136,289.894l-0.045-0.098c-0.055-0.004-0.111-0.006-0.166-0.009L615.136,289.894z"/>
	<path fill="#FFFFFF" d="M631.062,290.769c-1.266-0.634-2.539-1.26-3.844-1.835c-1.367-0.576-2.781-1.071-4.242-1.48
		c-2.83-0.784-5.875-1.187-9.258-0.856l1.373,3.199C620.394,290.075,625.779,290.299,631.062,290.769z"/>
	<path fill="#FFFFFF" d="M631.216,290.836c0.039,0.014,0.08,0.028,0.123,0.043c0.043-0.024,0.092-0.05,0.139-0.075
		c-0.139-0.013-0.277-0.024-0.416-0.035c0.047,0.022,0.094,0.045,0.139,0.069L631.216,290.836z"/>
	<polygon fill="#FFFFFF" points="340.854,283.484 340.071,282.358 333.113,283.959 333.873,284.895 	"/>
	<polygon fill="#FFFFFF" points="927.478,630.31 931.648,634.485 933.54,632.858 929.812,628.307 	"/>
	<polygon fill="#FFFFFF" points="611.06,279.832 609.759,282.635 614.466,281.278 	"/>
	<path fill="#FFFFFF" d="M609.374,282.745c0.006,0.004,0.254,0.169,0.254,0.169l0.131-0.279L609.374,282.745z"/>
	<polygon fill="#FFFFFF" points="925.613,566.909 925.673,568.83 930.88,569.198 931.015,567.818 	"/>
	<path fill="#FFFFFF" d="M864.029,770.043c-1.861,0.995-3.664,2.077-5.479,3.134l1.557,1.637c1.658-1.273,3.348-2.535,4.91-3.857
		C865.13,770.858,864.134,769.984,864.029,770.043z"/>
</g>
</svg>
